<?xml version="1.0" encoding="utf-8"?>
<!-- Generator: Adobe Illustrator 20.1.0, SVG Export Plug-In . SVG Version: 6.00 Build 0)  -->
<svg version="1.1" id="Layer_1" xmlns="http://www.w3.org/2000/svg" xmlns:xlink="http://www.w3.org/1999/xlink" x="0px" y="0px"
	 viewBox="0 0 546 136.6" style="enable-background:new 0 0 546 136.6;" xml:space="preserve">
<style type="text/css">
	.st0{fill:#412020;}
</style>
<g>
	<path class="st0" d="M9.2,71.6H5.6v10.5H1.3v3.4h4.4v33.4c0,3.1,1.2,4.9,6.1,4.9c1.2,0,2.5-0.1,3.7-0.2v-3.2
		c-0.9,0.1-2.3,0.2-3.2,0.2c-3,0-3-1.7-3-3.9v-31h6.2v-3.4H9.2V71.6z"/>
	<path class="st0" d="M36.6,83.4c-1.3-1-3.2-1.6-5.2-1.6c-4.2,0-6.2,2.4-7.5,3.7v-20h-3.5v58.1h3.5V90.7c0.3-1.2,0.7-2.4,1.9-3.6
		c1.3-1.2,3-1.9,4.7-1.9c5.4,0,5.4,5,5.4,7.7v30.7h3.5V90.8C39.5,89,39.5,85.7,36.6,83.4z"/>
	<path class="st0" d="M65.8,113.9v-4.6h-3.5c0,5.9,0,6.3-0.6,7.7c-1.2,3.5-4.4,3.5-5.3,3.5c-3.4,0-6.1-1.6-6.1-7v-10.2h15.5V95
		c0-5.1,0-13-9.6-13c-5.9,0-9.3,3.6-9.3,9.9v21.6c0,3.5,0.6,5.8,2.9,7.8c2.1,2,4.5,2.3,6.5,2.3C62.3,123.7,65.8,120.1,65.8,113.9z
		 M50.3,93.1c0-2,0-8,6-8c5.9,0,5.9,6.3,5.9,7.6v7.6H50.3V93.1z"/>
	<path class="st0" d="M111.4,123.6V90.8c0-1.8,0-5.1-2.9-7.4c-1.3-1-3.2-1.6-5.2-1.6c-4.2,0-6.2,2.4-7.5,3.7v-20h-3.5v58.1h3.5V90.7
		c0.3-1.2,0.7-2.4,1.9-3.6c1.3-1.2,3-1.9,4.7-1.9c5.4,0,5.4,5,5.4,7.7v30.7C107.8,123.6,111.4,123.6,111.4,123.6z"/>
	<path class="st0" d="M127.2,123.8c4.3,0,6.4-2.7,7.5-4.1v3.9h3.5V82.2h-3.5v33.3c-0.7,1.8-2.2,5.3-6.4,5.3c-5.1,0-5.4-5-5.4-7.6
		v-31h-3.5v31.9c0,2.1,0,6.2,3.3,8.4C123.9,123.3,125.5,123.8,127.2,123.8z"/>
	<path class="st0" d="M173.6,81.7c-4.9,0-7.2,3.3-8.4,4.9c-0.7-1.6-2.2-4.9-7-4.9c-4.4,0-6.9,3-7.7,3.9v-3.5h-3.6v41.4h3.5v-34
		c0-0.2,2.1-4.5,6.7-4.5c2,0,3.7,1,4.5,2.4c0.7,1.2,0.7,2.8,0.7,3.6v32.6h3.5V90.1c0-0.1,1.6-5.2,6.8-5.2c1.5,0,4,0.6,4.8,3.4
		c0.3,1.2,0.3,2.4,0.3,5.7v29.6h3.5V94.3c0-3.8,0-5.5-0.4-7.1C180.1,83.5,176.9,81.7,173.6,81.7z"/>
	<path class="st0" d="M204.5,87.3c0.7,1.2,0.7,2.8,0.7,3.6v32.6h3.5V90.1c0-0.1,1.6-5.2,6.8-5.2c1.5,0,4,0.6,4.8,3.4
		c0.3,1.2,0.3,2.4,0.3,5.7v29.6h3.5V94.3c0-3.8,0-5.5-0.4-7.1c-0.9-3.8-4.1-5.5-7.3-5.5c-4.9,0-7.2,3.3-8.4,4.9
		c-0.7-1.6-2.2-4.9-7-4.9c-4.4,0-6.9,3-7.7,3.9v-3.5h-3.6v41.4h3.5v-34c0-0.2,2.1-4.5,6.7-4.5C201.9,85,203.7,85.9,204.5,87.3z"/>
	<rect x="232.5" y="82.2" class="st0" width="3.5" height="41.4"/>
	<rect x="232.5" y="71" class="st0" width="3.5" height="6.4"/>
	<path class="st0" d="M260.2,82.8c-1.5-0.8-3.1-1.1-4.3-1.1c-1.8,0-3.5,0.5-4.8,1.3c-1.6,1.1-2.3,2.1-2.9,3.1v-4h-3.5v41.4h3.5V90
		c0.3-0.9,0.7-1.7,1.5-2.7c1.3-1.5,3.4-2.5,5.4-2.5c2.3,0,5.1,1.3,5.1,5.7v33.1h3.5V90.4C263.8,88.7,263.8,84.9,260.2,82.8z"/>
	<path class="st0" d="M290.8,125.5V82.1h-3.5v3.5c-1.1-1.4-2.9-3.8-6.9-3.8c-7,0-8.5,5.1-8.5,9.4v20.9c0,3.5,0,11.3,8.1,11.3
		c3.9,0,5.8-2,7.2-3.6v6.9c0,6.4-5.8,6.5-6.6,6.5c-5.5,0-5.6-3.9-5.7-5.4h-3.5c0.1,2.5,0.2,5.2,3,7.1c0.5,0.3,2.5,1.7,6.1,1.7
		c2.5,0,5.1-0.7,7-2.4C290.8,131.5,290.8,127.9,290.8,125.5z M287.3,113.9c0,1.2-1.7,6.2-6.5,6.2c-5.4,0-5.4-5.3-5.4-7.9V93.1
		c0-2.6,0-8.1,5.7-8.1c4.5,0,6.2,4.6,6.2,5.8L287.3,113.9L287.3,113.9z"/>
	<path class="st0" d="M303,120.2c0.8,1.2,2.6,3.6,6.7,3.6c4.9,0,8.7-3.8,8.7-9.9V92.8c0-3,0-11-8.1-11c-4.4,0-6.3,2.5-7.6,4V65.5
		h-3.5v58h3.6v-3.3H303z M302.9,92.5c0-5.4,3.4-7.5,6.6-7.5c4,0,5.5,3.2,5.5,7.6v20.1c0,1.6,0,4.6-2.1,6.6c-0.9,0.9-2.1,1.4-3.5,1.4
		c-2.8,0-6.6-2.5-6.6-8.3V92.5H302.9z"/>
	<rect x="326.6" y="71" class="st0" width="3.5" height="6.4"/>
	<rect x="326.6" y="82.2" class="st0" width="3.5" height="41.4"/>
	<path class="st0" d="M350.8,81.2c-5.9,3-7.5,5.8-8.6,8.3v-7.2h-3.4v41.4h3.5V94.4c2.9-6.7,5.3-7.6,8.6-8.6v-4.6H350.8z"/>
	<path class="st0" d="M374.6,123.6v-58h-3.5v20.6c-1.2-1.6-3-3.9-7.3-3.9c-2.5,0-8.3,1.1-8.3,10.5v20.7c0,2,0,10.4,8.2,10.4
		c4.6,0,6.7-3,7.6-4.7v4.4C371.3,123.6,374.6,123.6,374.6,123.6z M371.1,114.8c0,1.1-1.7,6-6.5,6c-5.7,0-5.7-6-5.7-8v-20
		c0-6.9,4.6-7.2,5.8-7.2c5.3,0,6.4,6.2,6.4,7.3L371.1,114.8L371.1,114.8z"/>
	<path class="st0" d="M421.1,92.8c0-3,0-11-8.1-11c-4.4,0-6.3,2.5-7.6,4V65.5H402v58h3.6v-3.4c0.8,1.2,2.6,3.6,6.7,3.6
		c4.9,0,8.7-3.8,8.7-9.9L421.1,92.8L421.1,92.8z M417.7,112.7c0,1.6,0,4.6-2.1,6.6c-0.9,0.9-2.1,1.4-3.5,1.4c-2.8,0-6.6-2.5-6.6-8.3
		V92.5c0-5.4,3.4-7.5,6.6-7.5c4,0,5.5,3.2,5.5,7.6v20.1H417.7z"/>
	<path class="st0" d="M443.5,120.4c0.7,2.7,2.3,3.2,5.9,3.2v-3.3c-1.2,0-2.5-0.1-2.5-1.5V91c0-2.5,0-9-8.4-9c-9.5,0-9.5,6.7-9.5,13
		h3.5c0-5.5,0-9.7,5.5-9.7c4.9,0,5.3,3,5.3,6.7v4.8c-2.1,1.6-2.7,1.9-6.9,4.1c-4.3,2.2-9.1,5.1-9.1,13c0,5.1,2.3,9.7,8.1,9.7
		C439.4,123.6,441.7,121.8,443.5,120.4z M431,114c0-6.1,3.5-8.1,7.6-10.4c3.3-1.8,3.6-2,4.9-2.9v15.7c-1.6,1.8-3.6,3.9-7.2,3.9
		C432.4,120.3,431,117.3,431,114z"/>
	<polygon class="st0" points="475.5,123.6 464.9,98 474.5,82.2 470.5,82.2 458.6,101.6 458.6,65.5 455.1,65.5 455.1,123.6 
		458.7,123.6 458.7,108.2 462.6,101.7 471.7,123.6 	"/>
	<path class="st0" d="M489.4,82c-5.9,0-9.3,3.6-9.3,9.9v21.6c0,3.5,0.6,5.8,2.9,7.8c2.1,2,4.5,2.3,6.5,2.3c6.1,0,9.5-3.5,9.5-9.8
		v-4.6h-3.5c0,5.9,0,6.3-0.6,7.7c-1.2,3.5-4.4,3.5-5.3,3.5c-3.4,0-6.1-1.6-6.1-7v-10.2H499V95C499,89.9,499,82,489.4,82z
		 M495.5,100.4h-11.9v-7.3c0-2,0-8,6-8c5.9,0,5.9,6.3,5.9,7.6V100.4z"/>
	<path class="st0" d="M510.1,89.5v-7.2h-3.4v41.4h3.5V94.4c2.9-6.7,5.3-7.6,8.6-8.6v-4.7C512.8,84.1,511.2,87,510.1,89.5z"/>
	<path class="st0" d="M540.5,82.2l-7.3,34.4L526,82.2h-3.5l9,41.1l-1,4.8c-0.2,1.2-1.2,5.7-6.7,5.7c-0.7,0-1.2-0.1-1.8-0.2v3.5
		c5.3,0,9.7-0.4,11.7-8.8l10.6-46L540.5,82.2L540.5,82.2z"/>
	<polygon class="st0" points="396.4,78.5 386.6,60.3 385.8,59 385.2,57.9 384.9,56.7 384.5,55.6 384.1,54.6 383.8,53.5 383.6,52.3 
		383.2,50.6 383.1,48.9 383.1,48.1 382.7,47 382.5,46.3 382.2,45.5 381.8,44.7 381.4,43.9 384.6,42.5 386,41.3 388.5,40.7 
		390.1,39.2 392.8,37.8 393.7,36.8 394.7,35 401.9,32.9 403.3,31.5 406.3,30.3 407.7,29.3 409.1,28.9 410.9,28.2 412.3,27.6 
		413.8,26.8 414.8,26.3 416.3,25.7 418.1,24.9 419.3,24.2 420.4,23.6 421.6,22.8 422.5,22.1 423.4,21.3 424.3,20.7 425.4,20 
		427.3,18.1 427.1,17.7 425.4,18.5 424.3,19.1 422.7,19.5 421.2,20 419.8,20.4 418,20.8 416.6,21.3 415.5,21.5 414.4,21.6 
		412.9,21.7 411.7,21.9 410.6,21.9 409.3,22 407.7,22 405.3,22.2 403.5,22.2 401.4,22.4 399.3,22.5 397.7,22.6 396.4,22.7 
		395.4,22.7 394.3,22.8 393.1,22.8 392.1,22.9 391,22.9 389.7,23 388.9,22.9 388.5,22.8 387.6,22.5 386.8,22.3 385.8,22.1 384.1,22 
		382.7,21.9 381.8,21.9 380.9,21.7 379.8,21.4 378.9,21.2 378,21.1 376.9,21.2 375.8,21.3 374.6,21.3 373.6,21.5 372.4,21.6 
		371.4,21.8 370.4,21.9 369.4,22.1 368.3,22.3 367.2,22.1 366.3,21.7 365.6,21.2 364.9,20.6 364.2,20 363.6,19.3 362.7,18.2 
		362.1,17.5 361.5,16.7 361.2,16.1 361.1,15 360.8,13.9 360.4,12.5 359.9,11.4 359.2,10.4 358.7,8.8 358.3,7.8 357.8,6.8 357,5.6 
		356.6,4.9 356,3.9 355.2,3.3 354,2.7 352.7,2.4 350.7,2 349,2 347.5,2.1 345.8,2.4 344.1,2.7 342.8,3 342,3.3 340.9,3.6 340.2,3.7 
		324.2,0 324.1,0.4 338.3,6.5 339.6,7.7 339.7,8 340.3,9.2 340.6,10.2 341,11.2 341.4,12.3 341.9,13.6 342.3,14.8 342.8,16.1 
		343.1,17.4 343.6,18.8 344.2,20.2 344.4,21.5 344.7,22.7 345.1,24.1 345.6,25.4 345.9,26.6 346.2,28.2 346.6,29.4 346.8,30.8 
		347.1,32.3 347.4,34.1 347.7,35.8 348,37.1 348.7,38.9 349.3,40.1 350,41.4 350.8,42.9 351.7,44 353,45.4 354,46.5 355.2,47.9 
		356.4,49 357.4,50 358.7,51.1 359.7,52.3 361.2,53.9 362,54.8 363.2,56.3 366.3,57.7 368.5,57.7 370.4,59.3 373.1,60.4 377,63.9 
		377,63.9 379.2,65 381.5,66.6 385.6,72.1 389.6,78.4 389.6,78.5 393.4,80.4 395.5,80 	"/>
</g>
</svg>
